<svg width="66" height="66" viewBox="0 0 66 66" fill="none" xmlns="http://www.w3.org/2000/svg">
<g id="SVG" clip-path="url(#clip0_37_54)">
<g id="Group">
<path id="Vector" d="M20.978 55.5117C21.5875 55.5117 22.0815 55.0176 22.0815 54.4082C22.0815 53.7987 21.5875 53.3047 20.978 53.3047C20.3686 53.3047 19.8745 53.7987 19.8745 54.4082C19.8745 55.0176 20.3686 55.5117 20.978 55.5117Z" fill="white"/>
<path id="Vector_2" d="M44.1518 55.5117C44.7613 55.5117 45.2553 55.0176 45.2553 54.4082C45.2553 53.7987 44.7613 53.3047 44.1518 53.3047C43.5424 53.3047 43.0483 53.7987 43.0483 54.4082C43.0483 55.0176 43.5424 55.5117 44.1518 55.5117Z" fill="white"/>
<path id="Vector_3" d="M59.5952 17.9929H6.63814C4.80992 17.9929 3.32227 19.4833 3.32227 21.3142V36.7416C3.32227 38.5725 4.80995 40.0629 6.63814 40.0629H59.5952C61.4234 40.0629 62.9111 38.5725 62.9111 36.7416V21.3142C62.9111 19.4833 61.4234 17.9929 59.5952 17.9929ZM52.9952 36.7524H12.1502V34.5454H52.9952V36.7524ZM58.4971 33.4419H7.73625V31.2349H58.4971V33.4419Z" fill="#5CB0FF"/>
<path id="Vector_4" d="M59.5952 15.7859H6.6381C3.5927 15.7859 1.11523 18.2655 1.11523 21.3142V36.7416C1.11523 39.7902 3.59272 42.2698 6.6381 42.2698H59.5952C62.6406 42.2698 65.118 39.7902 65.118 36.7416V21.3142C65.1181 18.2655 62.6406 15.7859 59.5952 15.7859ZM62.9111 36.7416C62.9111 38.5725 61.4234 40.0628 59.5952 40.0628H6.6381C4.80988 40.0628 3.32223 38.5725 3.32223 36.7416V21.3142C3.32223 19.4833 4.80991 17.9929 6.6381 17.9929H59.5952C61.4234 17.9929 62.911 19.4832 62.911 21.3142L62.9111 36.7416Z" fill="#1C71DA"/>
<path id="Vector_5" d="M51.5528 51.4211C51.1218 50.99 50.4235 50.99 49.9924 51.4211L48.1088 53.3048H47.2588C46.9255 52.3699 46.19 51.6344 45.2552 51.3011V50.4512L47.1389 48.5675C47.5699 48.1365 47.5699 47.4382 47.1389 47.0071C46.7078 46.5761 46.0095 46.5761 45.5785 47.0071L44.1517 48.4339L42.7249 47.0071C42.2938 46.5761 41.5955 46.5761 41.1645 47.0071C40.7335 47.4382 40.7334 48.1365 41.1645 48.5675L43.0482 50.4512V51.3011C42.1133 51.6345 41.3779 52.37 41.0445 53.3048H40.1946L38.3109 51.4211C37.8799 50.99 37.1816 50.99 36.7505 51.4211C36.3195 51.8521 36.3195 52.5505 36.7505 52.9815L38.1773 54.4083L36.7505 55.8351C36.3195 56.2661 36.3195 56.9644 36.7505 57.3955C36.966 57.611 37.2484 57.7188 37.5307 57.7188C37.8131 57.7188 38.0954 57.611 38.3109 57.3955L40.1946 55.5118H41.0446C41.378 56.4466 42.1134 57.182 43.0482 57.5154V58.3654L41.1645 60.2491C40.7335 60.6801 40.7335 61.3784 41.1645 61.8095C41.5956 62.2405 42.2939 62.2405 42.7249 61.8095L44.1517 60.3827L45.5785 61.8095C45.794 62.025 46.0764 62.1328 46.3587 62.1328C46.641 62.1328 46.9234 62.025 47.1389 61.8095C47.57 61.3784 47.57 60.6801 47.1389 60.2491L45.2552 58.3654V57.5155C46.1901 57.1821 46.9256 56.4466 47.2589 55.5118H48.1088L49.9925 57.3955C50.208 57.611 50.4903 57.7188 50.7727 57.7188C51.055 57.7188 51.3374 57.611 51.5529 57.3955C51.9839 56.9645 51.9839 56.2661 51.5529 55.8351L50.1261 54.4083L51.5529 52.9815C51.9839 52.5505 51.9839 51.8521 51.5528 51.4211ZM44.1517 55.5118C43.5433 55.5118 43.0482 55.0171 43.0482 54.4083C43.0482 53.7994 43.5433 53.3048 44.1517 53.3048C44.76 53.3048 45.2552 53.7994 45.2552 54.4083C45.2552 55.0171 44.76 55.5118 44.1517 55.5118Z" fill="#1C71DA"/>
<path id="Vector_6" d="M28.3795 51.4211C27.9485 50.99 27.2501 50.99 26.8191 51.4211L24.9354 53.3048H24.0855C23.7522 52.3699 23.0167 51.6344 22.0818 51.3011V50.4512L23.9655 48.5675C24.3966 48.1365 24.3966 47.4382 23.9655 47.0071C23.5345 46.5761 22.8362 46.5761 22.4051 47.0071L20.9784 48.4339L19.5516 47.0071C19.1205 46.5761 18.4222 46.5761 17.9912 47.0071C17.5601 47.4382 17.5601 48.1365 17.9912 48.5675L19.8749 50.4512V51.3011C18.94 51.6345 18.2045 52.37 17.8712 53.3048H17.0213L15.1376 51.4211C14.7065 50.99 14.0082 50.99 13.5772 51.4211C13.1462 51.8521 13.1461 52.5505 13.5772 52.9815L15.004 54.4083L13.5772 55.8351C13.1461 56.2661 13.1461 56.9644 13.5772 57.3955C13.7927 57.611 14.0751 57.7188 14.3574 57.7188C14.6397 57.7188 14.9221 57.611 15.1376 57.3955L17.0213 55.5118H17.8713C18.2046 56.4466 18.94 57.182 19.8749 57.5154V58.3654L17.9912 60.2491C17.5601 60.6801 17.5601 61.3784 17.9912 61.8095C18.4222 62.2405 19.1206 62.2405 19.5516 61.8095L20.9784 60.3827L22.4052 61.8095C22.6207 62.025 22.903 62.1328 23.1854 62.1328C23.4677 62.1328 23.7501 62.025 23.9656 61.8095C24.3966 61.3784 24.3966 60.6801 23.9656 60.2491L22.0819 58.3654V57.5155C23.0167 57.1821 23.7522 56.4466 24.0855 55.5118H24.9354L26.8191 57.3955C27.0346 57.611 27.317 57.7188 27.5993 57.7188C27.8817 57.7188 28.164 57.611 28.3795 57.3955C28.8106 56.9645 28.8106 56.2661 28.3795 55.8351L26.9527 54.4083L28.3795 52.9815C28.8106 52.5505 28.8106 51.8521 28.3795 51.4211ZM20.9783 55.5118C20.37 55.5118 19.8748 55.0171 19.8748 54.4083C19.8748 53.7994 20.37 53.3048 20.9783 53.3048C21.5867 53.3048 22.0818 53.7994 22.0818 54.4083C22.0818 55.0171 21.5867 55.5118 20.9783 55.5118Z" fill="#1C71DA"/>
<path id="Vector_7" d="M52.9954 34.5454H12.1504V36.7524H52.9954V34.5454Z" fill="#1C71DA"/>
<path id="Vector_8" d="M58.4972 31.2349H7.73633V33.4419H58.4972V31.2349Z" fill="#1C71DA"/>
</g>
<path id="Vector_9" d="M56.3965 50.7756C56.114 50.7756 55.8317 50.6678 55.6162 50.4523C55.1852 50.0215 55.1852 49.3226 55.6162 48.8919L59.5176 44.9906C59.9489 44.5598 60.6475 44.5598 61.0783 44.9906C61.5092 45.4213 61.5092 46.1202 61.0783 46.551L57.1768 50.4523C56.9613 50.6678 56.6788 50.7756 56.3965 50.7756Z" fill="#FF5D5D"/>
<path id="Vector_10" d="M60.2979 50.7758C60.0155 50.7758 59.7331 50.6681 59.5176 50.4525L55.6162 46.551C55.1852 46.1202 55.1852 45.4213 55.6162 44.9906C56.0475 44.5598 56.7461 44.5598 57.1768 44.9906L61.0783 48.8921C61.5092 49.3229 61.5092 50.0218 61.0783 50.4525C60.8628 50.6681 60.5803 50.7758 60.2979 50.7758Z" fill="#FF5D5D"/>
<path id="Vector_11" d="M3.9804 50.7755C1.85074 50.7755 0.118164 49.0429 0.118164 46.9133C0.118164 44.7836 1.85074 43.051 3.9804 43.051C6.11007 43.051 7.84264 44.7836 7.84264 46.9133C7.84264 49.0429 6.11007 50.7755 3.9804 50.7755ZM3.9804 45.258C3.06765 45.258 2.32516 46.0005 2.32516 46.9133C2.32516 47.826 3.06765 48.5685 3.9804 48.5685C4.89316 48.5685 5.63565 47.826 5.63565 46.9133C5.63565 46.0005 4.89316 45.258 3.9804 45.258Z" fill="#00D40B"/>
<path id="Vector_12" d="M19.7915 11.7746C19.4988 11.7746 19.2181 11.6582 19.0112 11.4513L15.8901 8.32999C15.4592 7.89921 15.4592 7.20037 15.8901 6.76959L19.0112 3.64849C19.4422 3.21743 20.1409 3.21743 20.5717 3.64849L23.693 6.76959C23.9 6.97649 24.0163 7.25722 24.0163 7.54979C24.0163 7.84235 23.9 8.12308 23.6931 8.32999L20.5719 11.4514C20.365 11.6583 20.0842 11.7746 19.7915 11.7746ZM18.231 7.54979L19.7915 9.11046L21.3522 7.54979L19.7915 5.98939L18.231 7.54979Z" fill="#FFC504"/>
</g>
<defs>
<clipPath id="clip0_37_54">
<rect width="65" height="65" fill="white" transform="translate(0.118164 0.229004)"/>
</clipPath>
</defs>
</svg>
