<svg width="66" height="65" viewBox="0 0 66 65" fill="none" xmlns="http://www.w3.org/2000/svg">
<g id="SVG" clip-path="url(#clip0_37_125)">
<path id="Vector" d="M5.86182 26.6924V30.1823C5.86182 44.9593 17.8409 56.9386 32.6179 56.9386C47.395 56.9386 59.3741 44.9594 59.3741 30.1825V26.6925H5.86182V26.6924Z" fill="#5B5D6E"/>
<path id="Vector_2" d="M32.6183 51.122C37.1156 51.122 40.7614 47.4762 40.7614 42.9788C40.7614 38.4815 37.1156 34.8357 32.6183 34.8357C28.1209 34.8357 24.4751 38.4815 24.4751 42.9788C24.4751 47.4762 28.1209 51.122 32.6183 51.122Z" fill="#464655"/>
<path id="Vector_3" d="M32.6184 46.4689C34.5458 46.4689 36.1083 44.9064 36.1083 42.979C36.1083 41.0515 34.5458 39.489 32.6184 39.489C30.6909 39.489 29.1284 41.0515 29.1284 42.979C29.1284 44.9064 30.6909 46.4689 32.6184 46.4689Z" fill="#5B5D6E"/>
<g id="Group">
<path id="Vector_4" d="M35.2355 42.3971C36.3599 42.3971 37.2714 41.4856 37.2714 40.3613C37.2714 39.2369 36.3599 38.3254 35.2355 38.3254C34.1112 38.3254 33.1997 39.2369 33.1997 40.3613C33.1997 41.4856 34.1112 42.3971 35.2355 42.3971Z" fill="white"/>
<path id="Vector_5" d="M29.4466 47.8952C30.4104 47.8952 31.1916 47.114 31.1916 46.1502C31.1916 45.1865 30.4104 44.4053 29.4466 44.4053C28.4829 44.4053 27.7017 45.1865 27.7017 46.1502C27.7017 47.114 28.4829 47.8952 29.4466 47.8952Z" fill="white"/>
</g>
<path id="Vector_6" d="M5.86182 26.6924V30.1823C5.86182 45.0865 18.0482 57.1446 33.0005 56.9359C33.0283 56.6821 32.9854 57.0735 33.0133 56.8196C26.2585 55.6749 20.8476 46.0294 19.9579 33.7495C19.9093 33.0795 20.4523 32.5091 21.124 32.5091H59.2672C59.3333 31.7418 59.3742 30.9671 59.3742 30.1825V26.6925L5.86182 26.6924Z" fill="#464655"/>
<path id="Vector_7" d="M61.7008 8.07935H3.53517C2.25027 8.07935 1.2085 9.121 1.2085 10.406V23.4021C1.2085 24.0191 1.45364 24.6109 1.89011 25.0471L5.86184 29.019H59.3741L63.3458 25.0471C63.7822 24.6109 64.0274 24.0191 64.0274 23.4021V10.406C64.0273 9.121 62.9857 8.07935 61.7008 8.07935Z" fill="#D5DCED"/>
<g id="Group_2">
<path id="Vector_8" d="M1.2085 23.2024V23.4021C1.2085 24.0191 1.45364 24.6109 1.89011 25.0471L5.86184 29.019H59.3741L63.3458 25.0471C63.7822 24.6109 64.0274 24.0191 64.0274 23.4021V23.2024H1.2085Z" fill="#C7CFE2"/>
<path id="Vector_9" d="M17.4949 23.402V10.406C17.4949 9.121 17.9965 8.07935 18.6152 8.07935H3.53517C2.25027 8.07935 1.2085 9.121 1.2085 10.406V23.4021C1.2085 24.0191 1.45364 24.6109 1.89011 25.0471L5.86184 29.019H19.7354L17.8231 25.0471C17.613 24.6108 17.4949 24.0191 17.4949 23.402Z" fill="#C7CFE2"/>
</g>
<path id="Vector_10" d="M1.20898 23.2026V23.4023C1.20898 24.0193 1.45413 24.6112 1.8906 25.0474L5.86232 29.0192H19.7359L17.8236 25.0474C17.6135 24.6112 17.4955 24.0193 17.4955 23.4023V23.2026H1.20898Z" fill="#AFB9D2"/>
<path id="Vector_11" d="M61.701 6.98901H3.53536C1.65112 6.98901 0.118164 8.52197 0.118164 10.4062V23.4023C0.118164 24.3151 0.47376 25.1733 1.11906 25.8186L4.77138 29.4708V30.1825C4.77138 45.5372 17.2634 58.0292 32.6182 58.0292C47.9729 58.0292 60.4649 45.5372 60.4649 30.1825V29.4708L64.1171 25.8184C64.7627 25.1731 65.1182 24.3148 65.1182 23.4021V10.4062C65.1182 8.52197 63.5852 6.98901 61.701 6.98901ZM32.6182 55.8481C18.4662 55.8481 6.95256 44.3344 6.95256 30.1825V30.1097H10.5158C11.118 30.1097 11.6064 29.6215 11.6064 29.0191C11.6064 28.4168 11.1181 27.9284 10.5158 27.9284H6.3136L2.6783 24.2931H45.4147C46.0169 24.2931 46.5053 23.8048 46.5053 23.2025C46.5053 22.6001 46.0171 22.1118 45.4147 22.1118H2.29935V10.4062C2.29935 9.7246 2.85375 9.1702 3.53536 9.1702H61.701C62.3826 9.1702 62.937 9.7246 62.937 10.4062V22.1121H57.0479C56.4456 22.1121 55.9572 22.6003 55.9572 23.2027C55.9572 23.8051 56.4455 24.2934 57.0479 24.2934H62.5579L58.9226 27.9287H15.1685C14.5662 27.9287 14.0778 28.4169 14.0778 29.0193C14.0778 29.6216 14.5661 30.11 15.1685 30.11H58.2836V30.1827C58.2838 44.3344 46.7701 55.8481 32.6182 55.8481Z" fill="#007CBA" fill-opacity="0.97"/>
<path id="Vector_12" d="M50.0677 24.2931H52.3948C52.997 24.2931 53.4854 23.8049 53.4854 23.2025C53.4854 22.6001 52.9971 22.1118 52.3948 22.1118H50.0677C49.4654 22.1118 48.9771 22.6001 48.9771 23.2025C48.9771 23.8049 49.4653 24.2931 50.0677 24.2931Z" fill="#007CBA" fill-opacity="0.97"/>
<path id="Vector_13" d="M32.6181 33.7451C27.5265 33.7451 23.3843 37.8873 23.3843 42.9789C23.3843 48.0705 27.5265 52.2127 32.6181 52.2127C37.7097 52.2127 41.8519 48.0705 41.8519 42.9789C41.8519 37.8873 37.7097 33.7451 32.6181 33.7451ZM32.6181 50.0314C28.7293 50.0314 25.5655 46.8676 25.5655 42.9788C25.5655 39.09 28.7293 35.9262 32.6181 35.9262C36.5069 35.9262 39.6707 39.09 39.6707 42.9788C39.6707 46.8676 36.5069 50.0314 32.6181 50.0314Z" fill="#007CBA" fill-opacity="0.97"/>
<path id="Vector_14" d="M36.1081 41.8881C35.5059 41.8881 35.0175 42.3764 35.0175 42.9788C35.0175 44.3018 33.9412 45.3781 32.6182 45.3781C31.2952 45.3781 30.2189 44.3018 30.2189 42.9788C30.2189 41.6558 31.2952 40.5795 32.6182 40.5795C33.2205 40.5795 33.7088 40.0912 33.7088 39.4888C33.7088 38.8866 33.2206 38.3982 32.6182 38.3982C30.0925 38.3982 28.0376 40.4531 28.0376 42.9788C28.0376 45.5045 30.0925 47.5594 32.6182 47.5594C35.1439 47.5594 37.1988 45.5045 37.1988 42.9788C37.1988 42.3764 36.7104 41.8881 36.1081 41.8881Z" fill="#007CBA" fill-opacity="0.97"/>
</g>
<defs>
<clipPath id="clip0_37_125">
<rect width="65" height="65" fill="white" transform="translate(0.118164 0.0090332)"/>
</clipPath>
</defs>
</svg>
