<svg width="66" height="66" viewBox="0 0 66 66" fill="none" xmlns="http://www.w3.org/2000/svg">
<g id="SVG">
<path id="Vector" d="M22.957 23.6328C17.6567 25.9814 13.4355 30.1963 11.0806 35.4966C10.7251 36.2964 11.0869 37.2295 11.8867 37.585C12.0962 37.6802 12.312 37.7246 12.5278 37.7246C13.1372 37.7246 13.7148 37.3755 13.9751 36.7852C16.0127 32.2022 19.6562 28.5586 24.2393 26.5273C25.0391 26.1719 25.4009 25.2388 25.0454 24.439C24.6963 23.6392 23.7568 23.2773 22.957 23.6328ZM36.5791 16.7456C37.0361 15.9966 37.3154 15.127 37.3154 14.1875C37.3154 11.4707 35.1128 9.27441 32.4023 9.27441C29.6855 9.27441 27.4893 11.4771 27.4893 14.1875C27.4893 15.127 27.7686 16.0029 28.2256 16.7456C14.4702 18.7705 3.88232 30.647 3.88232 44.9546V48.3887C3.88232 49.2646 4.59326 49.9756 5.46924 49.9756H59.3418C60.2178 49.9756 60.9287 49.2646 60.9287 48.3887V44.9546C60.9224 30.647 50.3281 18.7769 36.5791 16.7456ZM57.7549 46.8018H7.0498V44.9546C7.0498 30.977 18.4248 19.6084 32.4023 19.6084C46.3799 19.6084 57.7549 30.977 57.7549 44.9546V46.8018ZM59.3354 53.1621H5.46289C4.58691 53.1621 3.87598 53.873 3.87598 54.749C3.87598 55.625 4.58691 56.3359 5.46289 56.3359H59.3354C60.2114 56.3359 60.9224 55.625 60.9224 54.749C60.9224 53.873 60.2114 53.1621 59.3354 53.1621Z" fill="#FCA128"/>
</g>
</svg>
