<svg width="66" height="65" viewBox="0 0 66 65" fill="none" xmlns="http://www.w3.org/2000/svg">
<g id="SVG" clip-path="url(#clip0_37_229)">
<g id="XMLID_27_">
<path id="XMLID_32_" d="M34.8574 61.0603C34.8574 61.841 35.5006 62.4312 36.2795 62.4312H44.5397C45.3193 62.4312 45.8992 61.8411 45.8992 61.0603V54.7153H34.8574V61.0603Z" fill="black"/>
<path id="XMLID_337_" d="M20.4584 12.6864C23.9575 12.6864 26.796 9.84908 26.796 6.34818C26.7958 2.84636 23.9573 0.0090332 20.4584 0.0090332C16.9554 0.0090332 14.1177 2.84636 14.1177 6.34818C14.1177 9.84908 16.9553 12.6864 20.4584 12.6864Z" fill="black"/>
<path id="XMLID_418_" d="M29.7569 31.7004H24.8802C24.8802 36.0905 24.8802 33.4638 24.8802 37.7707C24.8802 38.5511 24.2644 39.1503 23.4831 39.1503C22.8435 39.1503 18.0734 39.1503 17.43 39.1503C16.6504 39.1503 15.9671 38.5511 15.9671 37.7707C15.9671 33.7827 15.9671 34.5303 15.9671 31.7168L11.1306 31.7219L8.78376 42.832C8.69516 43.248 8.80717 43.6501 9.07457 43.9816C9.34356 44.312 9.7545 44.4717 10.1782 44.4717H12.7742V61.7559C12.7742 63.5533 14.2348 65.0092 16.0335 65.0092C17.8297 65.0092 19.2928 63.5533 19.2928 61.7559V44.4716H21.6874V61.7558C21.6874 63.5532 23.1484 65.0091 24.9471 65.0091C26.7425 65.0091 28.206 63.5532 28.206 61.7558V44.4716H30.7347C31.1608 44.4716 31.5652 44.312 31.8325 43.9815C32.1008 43.6501 32.2047 43.2232 32.116 42.8072L29.7569 31.7004Z" fill="black"/>
<path id="XMLID_419_" d="M11.9148 28.2415H29.0135L28.3756 25.2259L30.2225 27.9968C30.6293 28.6097 31.3011 29.0273 32.0253 29.1597L38.8486 30.3927V47.3194C36.587 48.0135 34.8967 50.0589 34.8733 52.5865H45.9462C45.9229 50.0589 44.3029 48.0135 42.0414 47.3194V30.079C42.5735 29.6845 42.9563 29.1134 43.0837 28.4179C43.2697 27.3833 42.8396 26.4013 42.0414 25.802V6.99318C42.0414 6.09508 41.3431 5.36646 40.445 5.36646C39.5469 5.36646 38.8486 6.09494 38.8486 6.99318V24.8804L34.1307 24.0278L28.2097 15.1502C27.7015 14.3825 26.8548 14.0109 25.9986 13.9919L14.9346 13.962C13.9221 13.9822 12.9608 14.5456 12.5138 15.5262L3.47356 35.3308C2.85083 36.6925 3.45134 38.3013 4.81173 38.9227C6.18596 39.5478 7.78449 38.9389 8.40309 37.5821L11.1873 31.5062L11.9148 28.2415Z" fill="black"/>
<path id="XMLID_420_" d="M60.0883 60.719C60.1118 60.5818 60.1268 60.4416 60.1268 60.2976C60.1268 58.9329 59.0205 57.8267 57.6557 57.8267C57.5392 57.8267 57.4255 57.8375 57.3133 57.853C56.9475 56.8674 56.026 56.1538 54.9145 56.1538C53.7031 56.1538 52.7283 57.0076 52.4488 58.1333C52.1733 57.9807 51.8745 57.8707 51.5378 57.8707C50.4834 57.8707 49.6272 58.7263 49.6272 59.7808C49.6272 60.1179 49.7376 60.4175 49.8905 60.692C48.7419 60.747 47.8213 61.6526 47.8213 62.8153C47.8213 64.013 48.7927 64.9587 49.9896 64.9587H59.8407C61.0368 64.9587 62.009 64.013 62.009 62.8153C62.0091 61.7051 61.1644 60.8463 60.0883 60.719Z" fill="black"/>
</g>
</g>
<defs>
<clipPath id="clip0_37_229">
<rect width="65" height="65" fill="white" transform="translate(0.118164 0.0090332)"/>
</clipPath>
</defs>
</svg>
