<svg width="15" height="15" viewBox="0 0 15 15" fill="none" xmlns="http://www.w3.org/2000/svg">
<g id="Icon" clip-path="url(#clip0_1_138)">
<path id="Vector" d="M14.1968 0.908969C14.3629 1.02976 14.4309 1.19081 14.4007 1.39212L12.4681 12.9877C12.4429 13.1337 12.3624 13.2469 12.2265 13.3274C12.156 13.3677 12.078 13.3878 11.9925 13.3878C11.9371 13.3878 11.8767 13.3752 11.8113 13.3501L7.83283 11.727L5.58317 14.1956C5.49258 14.3013 5.37431 14.3541 5.22835 14.3541C5.15789 14.3541 5.10002 14.3441 5.05472 14.3239C4.9591 14.2887 4.88361 14.2296 4.82825 14.1465C4.77288 14.0635 4.7452 13.9716 4.7452 13.871V10.4587L1.18197 9.00173C0.995759 8.93127 0.895103 8.79287 0.880005 8.58652C0.864906 8.39024 0.945431 8.24178 1.12158 8.14112L13.6835 0.89387C13.8596 0.788181 14.0307 0.793214 14.1968 0.908969ZM11.615 12.2252L13.2834 2.23763L2.45779 8.48083L4.99433 9.51508L11.5093 4.69113L7.90078 10.7079L11.615 12.2252Z" fill="white"/>
</g>
<defs>
<clipPath id="clip0_1_138">
<rect width="14.05" height="14" fill="white" transform="matrix(1 0 0 -1 0.880005 14.59)"/>
</clipPath>
</defs>
</svg>
