<svg width="66" height="65" viewBox="0 0 66 65" fill="none" xmlns="http://www.w3.org/2000/svg">
<g id="SVG" clip-path="url(#clip0_37_157)">
<g id="Group">
<path id="Vector" d="M45.6182 19.509H64.0347V1.09229H45.6182V19.509Z" fill="#FD9808"/>
<g id="Group_2">
<path id="Vector_2" d="M45.6182 19.509H60.7848V1.09229H45.6182V19.509Z" fill="#FFDD09"/>
<path id="Vector_3" d="M47.7847 63.9256H60.7847V59.5923H47.7847V63.9256Z" fill="#FFDD09"/>
<path id="Vector_4" d="M51.0347 59.5923H57.5346V55.259H51.0347V59.5923Z" fill="#FFDD09"/>
</g>
<g id="Group_3">
<path id="Vector_5" d="M8.78502 63.9255H6.61834C5.42665 63.9255 4.45166 62.9505 4.45166 61.7588V55.2588H10.9517V61.7588C10.9516 62.9505 9.97658 63.9255 8.78502 63.9255Z" fill="#DB4D6C"/>
<path id="Vector_6" d="M41.285 63.9255H39.1183C37.9266 63.9255 36.9517 62.9505 36.9517 61.7588V55.2588H43.4517V61.7588C43.4517 62.9505 42.4767 63.9255 41.285 63.9255Z" fill="#DB4D6C"/>
</g>
<path id="Vector_7" d="M44.535 39.0091H43.9933C43.0183 39.0091 42.1516 38.3591 41.9349 37.4924L38.1432 24.2757C37.385 22.6508 35.8683 21.6758 34.1349 21.6758H13.7683C12.0349 21.6758 10.5184 22.6508 9.75996 24.2757L5.9683 37.4924C5.7516 38.4674 4.88503 39.0091 3.90991 39.0091H3.36834C2.17665 39.0091 1.20166 39.9841 1.20166 41.1758V53.0924C1.20166 54.2841 2.17665 55.2591 3.36834 55.2591H44.535C45.7267 55.2591 46.7017 54.2841 46.7017 53.0924V41.1758C46.7017 39.9841 45.7267 39.0091 44.535 39.0091Z" fill="#FD9808"/>
<path id="Vector_8" d="M41.5012 39.0091H40.9595C40.0928 39.0091 39.3345 38.3591 39.1178 37.4924L35.6512 24.2757C35.0012 22.6508 33.5928 21.6758 32.0762 21.6758H13.6596C12.143 21.6758 10.7347 22.6508 10.0847 24.2757L6.61803 37.4924C6.40132 38.3591 5.64304 39.0091 4.77634 39.0091H4.23464C3.15137 39.0091 2.28467 39.9841 2.28467 41.1758V53.0924C2.28467 54.2841 3.15137 55.2591 4.23464 55.2591H41.5012C42.5845 55.2591 43.4512 54.2841 43.4512 53.0924V41.1758C43.4513 39.9841 42.5846 39.0091 41.5012 39.0091Z" fill="#FFDD09"/>
<path id="Vector_9" d="M3.36834 39.0091H3.91004C4.88503 39.0091 5.75173 38.3591 5.96843 37.4924L9.86838 24.2757C10.5184 22.6508 12.0351 21.6758 13.7683 21.6758H15.8267C14.31 21.6758 12.9018 22.6508 12.2518 24.2757L8.7851 37.4924C8.5684 38.3591 7.81012 39.0091 6.94342 39.0091H6.40172C5.31844 39.0091 4.45174 39.9841 4.45174 41.1758V53.0924C4.45174 54.2841 5.31844 55.2591 6.40172 55.2591H3.36834C2.17665 55.2591 1.20166 54.2841 1.20166 53.0924V41.1758C1.20166 39.9841 2.17678 39.0091 3.36834 39.0091Z" fill="white"/>
<g id="Group_4">
<path id="Vector_10" d="M13.1181 46.5922C13.1181 48.4339 11.7098 49.8422 9.86812 49.8422C8.02643 49.8422 6.61816 48.4339 6.61816 46.5922C6.61816 44.7506 8.02643 43.3423 9.86812 43.3423C11.7098 43.3423 13.1181 44.7506 13.1181 46.5922Z" fill="#DB4D6C"/>
<path id="Vector_11" d="M41.2846 46.5922C41.2846 48.4339 39.8763 49.8422 38.0346 49.8422C36.1929 49.8422 34.7847 48.4339 34.7847 46.5922C34.7847 44.7506 36.1929 43.3423 38.0346 43.3423C39.8763 43.3423 41.2846 44.7506 41.2846 46.5922Z" fill="#DB4D6C"/>
</g>
<path id="Vector_12" d="M44.5348 56.3423H3.36812C1.52643 56.3423 0.118164 54.934 0.118164 53.0923V41.1757C0.118164 39.334 1.52643 37.9257 3.36812 37.9257H3.90982C4.34311 37.9257 4.77652 37.6007 4.9931 37.1674L8.78475 23.9508V23.8425C9.65145 21.8925 11.6014 20.5925 13.7681 20.5925H34.1348C36.3015 20.5925 38.2514 21.8925 39.1181 23.8425V23.9508L42.9098 37.1674C43.0181 37.6007 43.4515 37.9257 43.9931 37.9257H44.5348C46.3765 37.9257 47.7847 39.334 47.7847 41.1757V53.0923C47.7847 54.934 46.3765 56.3423 44.5348 56.3423ZM3.36812 40.0923C2.71813 40.0923 2.28484 40.5255 2.28484 41.1755V53.0922C2.28484 53.7422 2.71813 54.1755 3.36812 54.1755H44.5348C45.1848 54.1755 45.618 53.7422 45.618 53.0922V41.1755C45.618 40.5255 45.1848 40.0923 44.5348 40.0923H43.9931C42.5848 40.0923 41.2847 39.1173 40.8514 37.7089L37.0597 24.6005C36.518 23.4088 35.3264 22.7588 34.1348 22.7588H13.7681C12.4681 22.7588 11.3847 23.5171 10.8431 24.6005L7.05149 37.709C6.6182 39.1173 5.31809 40.0924 3.90982 40.0924H3.36812V40.0923Z" fill="#007CBA" fill-opacity="0.97"/>
<path id="Vector_13" d="M8.7848 65.009H6.61812C4.77643 65.009 3.36816 63.6008 3.36816 61.7591V55.2591C3.36816 54.6091 3.80145 54.1758 4.45144 54.1758H10.9515C11.6015 54.1758 12.0348 54.6091 12.0348 55.2591V61.7591C12.0348 63.6006 10.6264 65.009 8.7848 65.009ZM5.53471 56.3423V61.759C5.53471 62.409 5.968 62.8422 6.61799 62.8422H8.78467C9.43466 62.8422 9.86794 62.409 9.86794 61.759V56.3423H5.53471Z" fill="#007CBA" fill-opacity="0.97"/>
<path id="Vector_14" d="M41.2848 65.009H39.1181C37.2764 65.009 35.8682 63.6008 35.8682 61.7591V55.2591C35.8682 54.6091 36.3014 54.1758 36.9514 54.1758H43.4515C44.1015 54.1758 44.5348 54.6091 44.5348 55.2591V61.7591C44.5348 63.6006 43.1265 65.009 41.2848 65.009ZM38.0347 56.3423V61.759C38.0347 62.409 38.468 62.8422 39.118 62.8422H41.2847C41.9347 62.8422 42.3679 62.409 42.3679 61.759V56.3423H38.0347Z" fill="#007CBA" fill-opacity="0.97"/>
<path id="Vector_15" d="M9.86803 50.9258C7.48464 50.9258 5.53467 48.9758 5.53467 46.5924C5.53467 44.209 7.48464 42.259 9.86803 42.259C12.2514 42.259 14.2014 44.209 14.2014 46.5924C14.2014 48.9758 12.2514 50.9258 9.86803 50.9258ZM9.86803 44.4257C8.67633 44.4257 7.70135 45.4007 7.70135 46.5924C7.70135 47.7841 8.67633 48.7591 9.86803 48.7591C11.0597 48.7591 12.0347 47.7841 12.0347 46.5924C12.0347 45.4007 11.0597 44.4257 9.86803 44.4257Z" fill="#007CBA" fill-opacity="0.97"/>
<path id="Vector_16" d="M38.0345 50.9258C35.6511 50.9258 33.7012 48.9758 33.7012 46.5924C33.7012 44.209 35.6511 42.259 38.0345 42.259C40.4179 42.259 42.3679 44.209 42.3679 46.5924C42.3679 48.9758 40.4179 50.9258 38.0345 50.9258ZM38.0345 44.4257C36.8428 44.4257 35.8678 45.4007 35.8678 46.5924C35.8678 47.7841 36.8428 48.7591 38.0345 48.7591C39.2262 48.7591 40.2012 47.7841 40.2012 46.5924C40.2012 45.4007 39.2262 44.4257 38.0345 44.4257Z" fill="#007CBA" fill-opacity="0.97"/>
<path id="Vector_17" d="M26.1183 49.8423H21.7849C21.1349 49.8423 20.7017 49.409 20.7017 48.7591C20.7017 48.1091 21.1349 47.6758 21.7849 47.6758H26.1183C26.7683 47.6758 27.2016 48.1091 27.2016 48.7591C27.2016 49.409 26.7683 49.8423 26.1183 49.8423Z" fill="#007CBA" fill-opacity="0.97"/>
<path id="Vector_18" d="M28.2847 45.5091H19.6179C18.968 45.5091 18.5347 45.0758 18.5347 44.4258C18.5347 43.7758 18.968 43.3425 19.6179 43.3425H28.2847C28.9347 43.3425 29.3679 43.7758 29.3679 44.4258C29.3681 45.0757 28.9348 45.5091 28.2847 45.5091Z" fill="#007CBA" fill-opacity="0.97"/>
<path id="SVGCleanerId_0" d="M34.4598 37.9256H13.5515C12.9015 37.9256 12.2515 37.6006 11.8181 37.0589C11.3848 36.5172 11.2764 35.7589 11.4931 35.1089L14.0931 26.4422C14.4181 25.4672 15.1763 24.9255 16.1515 24.9255H31.8598C32.8348 24.9255 33.7015 25.5755 33.9182 26.4422L36.5181 35.1089C36.7349 35.7589 36.6264 36.5172 36.1932 37.0589C35.7599 37.6006 35.1097 37.9256 34.4598 37.9256ZM16.1515 27.0923L13.5515 35.7591H34.4598L31.8598 27.0923H16.1515Z" fill="#007CBA" fill-opacity="0.97"/>
<path id="Vector_19" d="M60.785 65.0089H47.7849C47.1349 65.0089 46.7017 64.5757 46.7017 63.9257V59.5923C46.7017 58.9423 47.1349 58.509 47.7849 58.509H60.7849C61.4349 58.509 61.8682 58.9423 61.8682 59.5923V63.9257C61.8683 64.5755 61.435 65.0089 60.785 65.0089ZM48.8683 62.8423H59.7016V60.6756H48.8683V62.8423Z" fill="#007CBA" fill-opacity="0.97"/>
<path id="Vector_20" d="M57.5345 60.6757H51.0344C50.3845 60.6757 49.9512 60.2424 49.9512 59.5924V55.2591C49.9512 54.6091 50.3845 54.1758 51.0344 54.1758H57.5345C58.1845 54.1758 58.6178 54.6091 58.6178 55.2591V59.5924C58.6179 60.2423 58.1845 60.6757 57.5345 60.6757ZM52.1179 58.509H56.4512V56.3423H52.1179V58.509Z" fill="#007CBA" fill-opacity="0.97"/>
<path id="Vector_21" d="M54.2849 56.3424C53.6349 56.3424 53.2017 55.9091 53.2017 55.2591V19.5091C53.2017 18.8591 53.6349 18.4258 54.2849 18.4258C54.9349 18.4258 55.3682 18.8591 55.3682 19.5091V55.2591C55.3683 55.9091 54.9349 56.3424 54.2849 56.3424Z" fill="#007CBA" fill-opacity="0.97"/>
<path id="Vector_22" d="M64.0345 20.5923H45.6179C44.968 20.5923 44.5347 20.159 44.5347 19.509V1.09231C44.5347 0.442317 44.968 0.0090332 45.6179 0.0090332H64.0347C64.6846 0.0090332 65.1179 0.442317 65.1179 1.09231V19.509C65.1179 20.159 64.6845 20.5923 64.0345 20.5923ZM46.7012 18.4257H62.9513V2.17571H46.7012V18.4257Z" fill="#007CBA" fill-opacity="0.97"/>
<path id="Vector_23" d="M53.2014 16.259C52.5514 16.259 52.1182 15.8257 52.1182 15.1757V5.42556C52.1182 4.77557 52.5514 4.34229 53.2014 4.34229C53.8514 4.34229 54.2847 4.77557 54.2847 5.42556V15.1756C54.2847 15.8255 53.8514 16.259 53.2014 16.259Z" fill="#007CBA" fill-opacity="0.97"/>
<path id="Vector_24" d="M55.3681 13.0089H53.2014C52.5514 13.0089 52.1182 12.5756 52.1182 11.9256V5.42556C52.1182 4.77557 52.5514 4.34229 53.2014 4.34229H55.3681C57.7515 4.34229 59.7015 6.29226 59.7015 8.67564C59.7015 11.059 57.7514 13.0089 55.3681 13.0089ZM54.2847 10.8422H55.368C56.5597 10.8422 57.5347 9.86721 57.5347 8.67552C57.5347 7.48382 56.5597 6.50884 55.368 6.50884H54.2847V10.8422Z" fill="#007CBA" fill-opacity="0.97"/>
<path id="Vector_25" d="M34.4597 36.8423H13.5514C12.7932 36.8423 12.3597 36.1923 12.4682 35.434L15.0681 26.7673C15.1764 26.334 15.6098 26.009 16.1514 26.009H31.8597C32.293 26.009 32.7264 26.334 32.943 26.7673L35.543 35.434C35.6514 36.1923 35.1097 36.8423 34.4597 36.8423Z" fill="#DB4D6C"/>
<g id="Group_5">
<path id="SVGCleanerId_0_1_" d="M34.4598 37.9256H13.5515C12.9015 37.9256 12.2515 37.6006 11.8181 37.0589C11.3848 36.5172 11.2764 35.7589 11.4931 35.1089L14.0931 26.4422C14.4181 25.4672 15.1763 24.9255 16.1515 24.9255H31.8598C32.8348 24.9255 33.7015 25.5755 33.9182 26.4422L36.5181 35.1089C36.7349 35.7589 36.6264 36.5172 36.1932 37.0589C35.7599 37.6006 35.1097 37.9256 34.4598 37.9256ZM16.1515 27.0923L13.5515 35.7591H34.4598L31.8598 27.0923H16.1515Z" fill="#007CBA" fill-opacity="0.97"/>
</g>
</g>
</g>
<defs>
<clipPath id="clip0_37_157">
<rect width="65" height="65" fill="white" transform="translate(0.118164 0.0090332)"/>
</clipPath>
</defs>
</svg>
