<svg width="66" height="66" viewBox="0 0 66 66" fill="none" xmlns="http://www.w3.org/2000/svg">
<g id="SVG" clip-path="url(#clip0_37_84)">
<path id="Vector" d="M14.3369 20.5415C14.3369 25.9287 16.263 31.0953 19.6914 34.9046C23.1198 38.7139 27.7697 40.854 32.6182 40.854C37.4667 40.854 42.1166 38.7139 45.545 34.9046C48.9734 31.0953 50.8994 25.9287 50.8994 20.5415C50.8994 17.874 50.4266 15.2327 49.5078 12.7682C48.5891 10.3038 47.2425 8.06459 45.545 6.1784C42.1166 2.36906 37.4667 0.229004 32.6182 0.229004C27.7697 0.229004 23.1198 2.36906 19.6914 6.1784C16.263 9.98773 14.3369 15.1543 14.3369 20.5415Z" fill="#EACA44"/>
<path id="Vector_2" d="M32.6182 4.2915C40.4568 4.2915 46.8369 11.5817 46.8369 20.5415C46.8369 29.5013 40.4568 36.7915 32.6182 36.7915C24.7796 36.7915 18.3994 29.5013 18.3994 20.5415C18.3994 11.5817 24.7796 4.2915 32.6182 4.2915ZM32.6182 0.229004C22.5208 0.229004 14.3369 9.32494 14.3369 20.5415C14.3369 31.7581 22.5208 40.854 32.6182 40.854C42.7155 40.854 50.8994 31.7581 50.8994 20.5415C50.8994 9.32494 42.7155 0.229004 32.6182 0.229004ZM50.8994 40.854H14.3369C14.3369 48.8104 19.4293 55.5603 26.5244 58.0729V63.1978C26.5244 63.7365 26.7384 64.2531 27.1194 64.6341C27.5003 65.015 28.0169 65.229 28.5557 65.229H36.6807C37.2194 65.229 37.736 65.015 38.117 64.6341C38.4979 64.2531 38.7119 63.7365 38.7119 63.1978V58.0729C45.8071 55.5603 50.8994 48.8104 50.8994 40.854Z" fill="#EAEAEA"/>
<path id="Vector_3" d="M52.9307 38.8228C52.9307 39.3615 52.7167 39.8781 52.3357 40.2591C51.9548 40.64 51.4381 40.854 50.8994 40.854H14.3369C13.7982 40.854 13.2815 40.64 12.9006 40.2591C12.5197 39.8781 12.3057 39.3615 12.3057 38.8228C12.3057 38.284 12.5197 37.7674 12.9006 37.3864C13.2815 37.0055 13.7982 36.7915 14.3369 36.7915H50.8994C51.4381 36.7915 51.9548 37.0055 52.3357 37.3864C52.7167 37.7674 52.9307 38.284 52.9307 38.8228Z" fill="#434854"/>
<path id="Vector_4" d="M32.6182 55.0728C29.3279 55.0759 26.0777 54.3508 23.1007 52.9496C20.1237 51.5483 17.4937 49.5057 15.3993 46.9681C16.3138 49.5284 17.7865 51.8532 19.7107 53.7739C21.635 55.6946 23.9624 57.1631 26.5244 58.0729V63.1978C26.5244 63.7365 26.7384 64.2531 27.1194 64.6341C27.5003 65.015 28.0169 65.229 28.5557 65.229H36.6807C37.2194 65.229 37.736 65.015 38.117 64.6341C38.4979 64.2531 38.7119 63.7365 38.7119 63.1978V58.0729C41.2739 57.1631 43.6014 55.6946 45.5256 53.7739C47.4498 51.8532 48.9225 49.5284 49.8371 46.9681C47.7427 49.5057 45.1126 51.5483 42.1356 52.9496C39.1586 54.3508 35.9084 55.0759 32.6182 55.0728ZM50.7735 42.8853C50.8486 42.217 50.8994 41.5426 50.8994 40.854H14.3369C14.3369 41.5426 14.3877 42.217 14.4629 42.8853H50.7735Z" fill="#007CBA" fill-opacity="0.97"/>
</g>
<defs>
<clipPath id="clip0_37_84">
<rect width="65" height="65" fill="white" transform="translate(0.118164 0.229004)"/>
</clipPath>
</defs>
</svg>
