<svg width="66" height="66" viewBox="0 0 66 66" fill="none" xmlns="http://www.w3.org/2000/svg">
<g id="SVG" clip-path="url(#clip0_37_103)">
<g id="eruption">
<path id="secondary" d="M12.6306 61.979H52.6056C53.1765 61.9732 53.7358 61.8171 54.2272 61.5265C54.7186 61.2359 55.1247 60.8209 55.4048 60.3234C55.6848 59.8259 55.8289 59.2634 55.8224 58.6925C55.816 58.1217 55.6593 57.5626 55.3681 57.0715C51.2358 50.2958 48.1257 42.9475 46.1381 35.264C45.973 34.5309 45.5589 33.8776 44.9664 33.4154C44.3738 32.9532 43.6394 32.7106 42.8881 32.729H22.2181C21.4668 32.7106 20.7324 32.9532 20.1398 33.4154C19.5473 33.8776 19.1332 34.5309 18.9681 35.264C17.0213 42.9403 13.9551 50.2882 9.86811 57.0715C9.57691 57.5626 9.42021 58.1217 9.41378 58.6925C9.40735 59.2634 9.5514 59.8259 9.83145 60.3234C10.1115 60.8209 10.5177 61.2359 11.0091 61.5265C11.5004 61.8171 12.0597 61.9732 12.6306 61.979Z" fill="#2CA9BC"/>
<path id="primary" d="M16.3682 9.979C18.6196 12.7155 19.7774 16.189 19.6182 19.729" stroke="black" stroke-width="6.5" stroke-linecap="round" stroke-linejoin="round"/>
<path id="primary_2" d="M45.6181 19.729C45.4526 16.1881 46.6112 12.7124 48.8681 9.979" stroke="black" stroke-width="6.5" stroke-linecap="round" stroke-linejoin="round"/>
<path id="primary_3" d="M32.6181 3.479V19.729M12.6306 61.979H52.6056C53.1765 61.9732 53.7358 61.8171 54.2272 61.5265C54.7186 61.2359 55.1247 60.8209 55.4048 60.3234C55.6848 59.8259 55.8289 59.2634 55.8224 58.6925C55.816 58.1217 55.6593 57.5626 55.3681 57.0715C51.2358 50.2958 48.1257 42.9475 46.1381 35.264C45.973 34.5309 45.5589 33.8776 44.9664 33.4154C44.3738 32.9532 43.6394 32.7106 42.8881 32.729H22.2181C21.4668 32.7106 20.7324 32.9532 20.1398 33.4154C19.5473 33.8776 19.1332 34.5309 18.9681 35.264C17.0213 42.9403 13.9551 50.2882 9.86811 57.0715C9.57691 57.5626 9.42021 58.1217 9.41378 58.6925C9.40735 59.2634 9.5514 59.8259 9.83145 60.3234C10.1115 60.8209 10.5177 61.2359 11.0091 61.5265C11.5004 61.8171 12.0597 61.9732 12.6306 61.979Z" stroke="black" stroke-width="6.5" stroke-linecap="round" stroke-linejoin="round"/>
</g>
</g>
<defs>
<clipPath id="clip0_37_103">
<rect width="65" height="65" fill="white" transform="translate(0.118164 0.229004)"/>
</clipPath>
</defs>
</svg>
