<svg width="66" height="65" viewBox="0 0 66 65" fill="none" xmlns="http://www.w3.org/2000/svg">
<g id="SVG" clip-path="url(#clip0_37_203)">
<path id="Vector" d="M17.168 22.1106C15.9715 22.1106 15.0015 23.0805 15.0015 24.2772V42.7594H19.3346V24.2771C19.3345 23.0805 18.3646 22.1106 17.168 22.1106Z" fill="#609399"/>
<path id="Vector_2" d="M65.1182 47.165C65.1182 43.9872 62.5182 41.3872 59.3404 41.3872H5.89593C2.71816 41.3872 0.118164 43.9872 0.118164 47.165V54.1946C0.118164 57.3724 2.71816 59.9724 5.89593 59.9724H59.3404C62.5182 59.9724 65.1182 57.3724 65.1182 54.1946V47.165Z" fill="#1B4145"/>
<path id="Vector_3" d="M24.7072 15.6591C24.43 15.6591 24.1527 15.5533 23.941 15.3418C20.2063 11.6067 14.1289 11.6065 10.3939 15.3418C9.97059 15.7647 9.28479 15.7647 8.86178 15.3418C8.43865 14.9185 8.43865 14.2327 8.86178 13.8097C13.4417 9.23003 20.8934 9.23015 25.4733 13.8097C25.8965 14.233 25.8965 14.9188 25.4733 15.3418C25.2617 15.5532 24.9844 15.6591 24.7072 15.6591Z" fill="#FEE191"/>
<path id="Vector_4" d="M28.4771 11.8893C28.2 11.8893 27.9226 11.7836 27.711 11.5721C21.8974 5.75837 12.4379 5.75799 6.62432 11.5721C6.20106 11.9949 5.51526 11.9949 5.09225 11.5721C4.66912 11.1488 4.66912 10.463 5.09225 10.04C8.31293 6.81932 12.6015 5.04565 17.1679 5.04565C21.734 5.04565 26.0228 6.81932 29.2434 10.04C29.6666 10.4633 29.6666 11.1491 29.2434 11.5721C29.0317 11.7836 28.7544 11.8893 28.4771 11.8893Z" fill="#FFF1CD"/>
<path id="Vector_5" d="M20.9376 19.4288C20.6604 19.4288 20.3831 19.3231 20.1714 19.1116C18.5152 17.4553 15.8204 17.4551 14.1639 19.1116C13.7406 19.5344 13.0548 19.5344 12.6318 19.1116C12.2087 18.6883 12.2087 18.0025 12.6318 17.5795C15.1332 15.0786 19.2026 15.0786 21.7037 17.5795C22.1269 18.0028 22.1269 18.6886 21.7037 19.1116C21.4921 19.3231 21.2147 19.4288 20.9376 19.4288Z" fill="#FFD24D"/>
<g id="Group">
<path id="Vector_6" d="M32.618 53.7377C32.0195 53.7377 31.5347 53.2527 31.5347 52.6544V48.7049C31.5347 48.1064 32.0196 47.6216 32.618 47.6216C33.2164 47.6216 33.7012 48.1065 33.7012 48.7049V52.6544C33.7012 53.2527 33.2164 53.7377 32.618 53.7377Z" fill="white"/>
<path id="Vector_7" d="M40.743 53.7377C40.1445 53.7377 39.6597 53.2527 39.6597 52.6544V48.7049C39.6597 48.1064 40.1446 47.6216 40.743 47.6216C41.3414 47.6216 41.8262 48.1065 41.8262 48.7049V52.6544C41.8262 53.2527 41.3414 53.7377 40.743 53.7377Z" fill="white"/>
</g>
<path id="Vector_8" d="M56.993 53.7377C56.3945 53.7377 55.9097 53.2527 55.9097 52.6544V48.7049C55.9097 48.1064 56.3946 47.6216 56.993 47.6216C57.5914 47.6216 58.0762 48.1065 58.0762 48.7049V52.6544C58.0762 53.2527 57.5914 53.7377 56.993 53.7377Z" fill="#FFD24D"/>
<path id="Vector_9" d="M48.868 53.7377C48.2695 53.7377 47.7847 53.2527 47.7847 52.6544V48.7049C47.7847 48.1064 48.2696 47.6216 48.868 47.6216C49.4664 47.6216 49.9512 48.1065 49.9512 48.7049V52.6544C49.9512 53.2527 49.4664 53.7377 48.868 53.7377Z" fill="white"/>
</g>
<defs>
<clipPath id="clip0_37_203">
<rect width="65" height="65" fill="white" transform="translate(0.118164 0.0090332)"/>
</clipPath>
</defs>
</svg>
